# xmcd
#
# Track frame offsets:
#	182
#	4552
#	26885
#	45795
#	69027
#	87987
#	105892
#	125962
#	147915
#	166882
#	184777
#	200615
#	220827
#	238767
#
# Disc length: 3248 seconds
#
# Revision: 0
# Processed by: cddbd v1.4PL0 Copyright (c) Steve Scherf et al.
# Submitted via: EasyCDDAExtractor 5.0.2.1
#
DISCID=b60cae0e
DTITLE=Proper Dos - Heat
DYEAR=1999
DGENRE=Chicano Rap
TTITLE0=Heat
TTITLE1=Califa Funk
TTITLE2=Just The Way Players Play
TTITLE3=On and On
TTITLE4=Ridin' Round Tha World
TTITLE5=Brown Cigar
TTITLE6=What Juice I Got
TTITLE7=What's Next On Tha Menu
TTITLE8=Bye Bye Baby
TTITLE9=2 0'Clock
TTITLE10=Free Bass'n
TTITLE11=No Money No Honey
TTITLE12=Bye Bye Baby (Reprise)
TTITLE13=Crews In
EXTD=
EXTT0=
EXTT1=
EXTT2=
EXTT3=
EXTT4=
EXTT5=
EXTT6=
EXTT7=
EXTT8=
EXTT9=
EXTT10=
EXTT11=
EXTT12=
EXTT13=
PLAYORDER=
